<svg xmlns="http://www.w3.org/2000/svg" xmlns:xlink="http://www.w3.org/1999/xlink" width="80" height="22" viewBox="0 0 80 22">
    <defs>
        <path id="ert6i7hmcb" d="M14.782.074C6.618.074 0 4.932 0 10.926c0 5.993 6.618 10.852 14.782 10.852 8.163 0 14.781-4.86 14.781-10.852 0-5.994-6.618-10.852-14.781-10.852zM9.494 13.056C7.552 8.26 8.434 3.376 11.465 2.15c3.031-1.227 7.063 1.667 9.005 6.464 1.942 4.797 1.06 9.68-1.971 10.908-.471.19-.967.281-1.474.281-2.76 0-5.89-2.693-7.531-6.746z"/>
        <path id="xc1qbzhy2e" d="M0 21.778L79.98 21.778 79.98 0.074 0 0.074z"/>
        <linearGradient id="ce8dbe7z5c" x1="0%" x2="100%" y1="50%" y2="50%">
            <stop offset="0%" stop-color="#F48151"/>
            <stop offset="100%" stop-color="#004071"/>
        </linearGradient>
        <filter id="1mh3gu73ha">
            <feColorMatrix in="SourceGraphic" values="0 0 0 0 1.000000 0 0 0 0 1.000000 0 0 0 0 1.000000 0 0 0 1.000000 0"/>
        </filter>
    </defs>
    <g fill="none" fill-rule="evenodd" filter="url(#1mh3gu73ha)" transform="translate(0 .149)">
        <g>
            <mask id="9mheyg21md" fill="#fff">
                <use xlink:href="#ert6i7hmcb"/>
            </mask>
            <path fill="url(#ce8dbe7z5c)" d="M14.782.074C6.618.074 0 4.932 0 10.926c0 5.993 6.618 10.852 14.782 10.852 8.163 0 14.781-4.86 14.781-10.852 0-5.994-6.618-10.852-14.781-10.852zM9.494 13.056C7.552 8.26 8.434 3.376 11.465 2.15c3.031-1.227 7.063 1.667 9.005 6.464 1.942 4.797 1.06 9.68-1.971 10.908-.471.19-.967.281-1.474.281-2.76 0-5.89-2.693-7.531-6.746z" mask="url(#9mheyg21md)"/>
        </g>
        <g>
            <path fill="#004071" d="M39.678 14.108c-.895-3.994-1.756-8.005-2.651-12.015h2.452c.597 2.834 1.177 5.651 1.757 8.485h.017c.712-2.834 1.375-5.651 2.088-8.485h2.337c.712 2.834 1.458 5.651 2.17 8.485h.034l1.723-8.485h2.221l-2.701 12.015h-2.453l-2.237-8.22h-.017c-.646 2.751-1.293 5.485-1.955 8.22h-2.785zM53.946 8.109c0-4.607 2.718-6.215 5.784-6.215 1.243 0 2.47.215 3.248.63l-.53 1.988c-.73-.38-1.574-.563-2.52-.563-1.855 0-3.43 1.027-3.43 3.994 0 2.834 1.21 4.326 3.448 4.326.96 0 2.22-.332 2.883-.647l.48 1.972c-.778.448-2.253.73-3.761.73-3.398 0-5.602-1.956-5.602-6.215"/>
            <mask id="k1sjqfv9uf" fill="#fff">
                <use xlink:href="#xc1qbzhy2e"/>
            </mask>
            <path fill="#004071" d="M66.491 14.108L68.96 14.108 68.96 2.093 66.491 2.093zM72.622 2.06L79.98 2.06 79.98 4.098 75.091 4.098 75.091 7.263 79.168 7.263 79.168 9.203 75.091 9.203 75.091 14.125 72.622 14.125zM38.985 18.89L39.355 17.36 39.735 17.36 39.216 19.363 38.788 19.363 38.415 17.91 38.043 19.363 37.615 19.363 37.093 17.36 37.473 17.36 37.843 18.89 38.233 17.36 38.598 17.36zM40.617 19.115c.228 0 .3-.172.3-.468 0-.294-.072-.464-.3-.464-.225 0-.298.17-.298.464 0 .296.073.468.298.468m0 .284c-.435 0-.65-.276-.65-.752 0-.472.215-.75.65-.75.439 0 .651.278.651.75 0 .476-.212.752-.65.752M42.058 18.629v.734h-.352v-1.43h.352v.258c.048-.195.164-.294.382-.294.043 0 .084.005.114.013l-.005.286c-.023-.003-.071-.005-.122-.005-.235 0-.37.15-.37.438M42.941 19.363L43.293 19.363 43.293 17.36 42.941 17.36zM44.693 18.646c0-.293-.07-.463-.299-.463-.225 0-.299.17-.299.463 0 .297.074.47.3.47.227 0 .298-.173.298-.47zm0 .497c-.05.155-.195.256-.392.256-.34 0-.558-.233-.558-.753 0-.516.218-.749.558-.749.197 0 .341.101.392.256v-.793h.352v2.003h-.352v-.22zM46.63 17.606c.126-.175.32-.281.615-.281.47 0 .752.288.772.711h-.37c-.012-.243-.154-.392-.402-.392-.147 0-.251.055-.317.152-.073.109-.109.263-.109.565 0 .306.036.458.109.57.066.096.17.151.317.151.248 0 .39-.15.402-.392h.37c-.02.423-.301.709-.772.709-.294 0-.49-.104-.616-.279-.147-.205-.18-.479-.18-.76 0-.278.033-.549.18-.754M48.457 17.933h.35v.899c0 .192.08.283.227.283.182 0 .312-.134.312-.38v-.802h.352v1.43h-.352v-.243c-.053.167-.2.279-.405.279-.312 0-.484-.2-.484-.563v-.903zM50.188 19.363L50.54 19.363 50.54 17.36 50.188 17.36zM51.51 18.903c0 .162.05.2.225.2h.145v.273c-.046.005-.15.008-.216.008-.362 0-.509-.107-.509-.421v-.747h-.202v-.283h.202v-.406h.355v.406h.37v.283h-.37v.687zM52.297 17.933h.35v.899c0 .192.08.283.227.283.182 0 .312-.134.312-.38v-.802h.352v1.43h-.352v-.243c-.054.167-.2.279-.406.279-.311 0-.483-.2-.483-.563v-.903zM54.37 18.629v.734h-.352v-1.43h.352v.258c.048-.195.165-.294.383-.294.043 0 .083.005.114.013l-.006.286c-.022-.003-.07-.005-.121-.005-.236 0-.37.15-.37.438M56.092 18.946c0-.135-.094-.2-.279-.2-.185 0-.278.065-.278.2 0 .131.093.197.278.197.182 0 .279-.066.279-.197m-.39.453c-.317 0-.52-.165-.52-.453 0-.29.2-.456.52-.456.182 0 .339.068.39.194v-.245c0-.17-.081-.258-.256-.258-.147 0-.23.063-.246.182h-.354c.023-.279.223-.466.6-.466.41 0 .608.218.608.542v.724c0 .076.012.152.033.2h-.36c-.015-.035-.023-.101-.025-.16-.043.112-.183.196-.39.196M56.934 19.363L57.286 19.363 57.286 17.36 56.934 17.36zM58.749 19.363L59.122 19.363 59.122 17.36 58.749 17.36zM60.866 19.363h-.352v-.896c0-.193-.078-.284-.226-.284-.182 0-.31.132-.31.38v.8h-.353v-1.43h.352v.243c.053-.168.2-.279.405-.279.312 0 .484.2.484.565v.901zM62.248 18.646c0-.293-.071-.463-.299-.463-.225 0-.299.17-.299.463 0 .297.074.47.299.47.228 0 .299-.173.299-.47zm0 .497c-.05.155-.195.256-.393.256-.339 0-.557-.233-.557-.753 0-.516.218-.749.557-.749.198 0 .342.101.393.256v-.793h.352v2.003h-.352v-.22zM63.075 17.933h.35v.899c0 .192.08.283.228.283.182 0 .311-.134.311-.38v-.802h.352v1.43h-.352v-.243c-.053.167-.2.279-.405.279-.312 0-.484-.2-.484-.563v-.903zM64.759 18.92h.352v.04c0 .107.091.173.23.173.145 0 .23-.069.23-.17 0-.098-.047-.15-.192-.177l-.144-.026c-.32-.055-.471-.187-.471-.43 0-.248.21-.433.552-.433.347 0 .552.172.552.428v.028h-.352v-.028c0-.089-.066-.16-.2-.16-.132 0-.198.069-.198.152 0 .097.058.14.198.165l.147.025c.334.058.46.193.46.448 0 .251-.222.444-.582.444-.365 0-.582-.19-.582-.444v-.035zM66.779 18.903c0 .162.05.2.225.2h.145v.273c-.046.005-.15.008-.216.008-.362 0-.509-.107-.509-.421v-.747h-.202v-.283h.202v-.406h.355v.406h.37v.283h-.37v.687zM67.923 18.629v.734h-.352v-1.43h.352v.258c.048-.195.165-.294.382-.294.044 0 .084.005.114.013l-.005.286c-.023-.003-.07-.005-.121-.005-.236 0-.37.15-.37.438M69.232 19.369l-.54-1.436h.365l.347 1.01.337-1.01h.367l-.61 1.691c-.107.297-.239.362-.482.362-.043 0-.106 0-.146-.005v-.276h.106c.086 0 .15-.03.192-.154l.064-.182zM71.454 17.36L72.659 17.36 72.659 17.677 71.826 17.677 71.826 18.208 72.571 18.208 72.571 18.522 71.826 18.522 71.826 19.363 71.454 19.363zM73.68 19.115c.227 0 .298-.172.298-.468 0-.294-.07-.464-.299-.464-.225 0-.298.17-.298.464 0 .296.073.468.298.468m0 .284c-.435 0-.65-.276-.65-.752 0-.472.215-.75.65-.75.438 0 .651.278.651.75 0 .476-.213.752-.65.752M75.12 18.629v.734h-.352v-1.43h.352v.258c.048-.195.164-.294.382-.294.043 0 .084.005.114.013l-.005.286c-.023-.003-.071-.005-.122-.005-.235 0-.37.15-.37.438M75.988 17.933h.349v.899c0 .192.081.283.228.283.182 0 .312-.134.312-.38v-.802h.352v1.43h-.352v-.243c-.054.167-.2.279-.406.279-.311 0-.483-.2-.483-.563v-.903zM78.927 19.363h-.352v-.917c0-.177-.073-.263-.215-.263-.183 0-.299.132-.299.38v.8h-.352v-1.43h.352v.243c.053-.168.185-.279.392-.279.21 0 .365.101.431.286.089-.2.243-.286.436-.286.303 0 .473.203.473.565v.901h-.352v-.917c0-.177-.076-.263-.215-.263-.182 0-.299.132-.299.38v.8z" mask="url(#k1sjqfv9uf)"/>
        </g>
    </g>
</svg>
